DataType=double
version=3
OpenSimVersion=4.5.2-2025-05-03-6a4c6ec41
endheader
time	q	/jointset/head_joint/q/speed
2.50999999999999	-1.562499999999988	-1.249999999999995
2.51999999999999	-1.574974999999987	-1.244999999999995
2.52999999999999	-1.587399999999987	-1.239999999999995
2.53999999999999	-1.599774999999987	-1.234999999999995
2.54999999999999	-1.612099999999986	-1.229999999999996
2.559999999999989	-1.624374999999986	-1.224999999999996
2.569999999999989	-1.636599999999986	-1.219999999999996
2.579999999999989	-1.648774999999985	-1.214999999999996
2.589999999999989	-1.660899999999985	-1.209999999999996
2.599999999999989	-1.672974999999985	-1.204999999999996
2.609999999999988	-1.684999999999984	-1.199999999999996
2.619999999999988	-1.696974999999984	-1.194999999999996
2.629999999999988	-1.708899999999984	-1.189999999999996
2.639999999999988	-1.720774999999983	-1.184999999999997
2.649999999999987	-1.732599999999983	-1.179999999999997
2.659999999999987	-1.744374999999983	-1.174999999999997
2.669999999999987	-1.756099999999982	-1.169999999999997
2.679999999999987	-1.767774999999982	-1.164999999999997
2.689999999999987	-1.779399999999982	-1.159999999999997
2.699999999999986	-1.790974999999982	-1.154999999999997
2.709999999999986	-1.802499999999981	-1.149999999999997
2.719999999999986	-1.813974999999981	-1.144999999999997
2.729999999999986	-1.825399999999981	-1.139999999999997
2.739999999999986	-1.836774999999981	-1.134999999999998
2.749999999999985	-1.84809999999998	-1.129999999999998
2.759999999999985	-1.85937499999998	-1.124999999999998
2.769999999999985	-1.87059999999998	-1.119999999999998
2.779999999999985	-1.88177499999998	-1.114999999999998
2.789999999999984	-1.892899999999979	-1.109999999999998
2.799999999999984	-1.903974999999979	-1.104999999999998
2.809999999999984	-1.914999999999979	-1.099999999999998
2.819999999999984	-1.925974999999979	-1.094999999999998
2.829999999999984	-1.936899999999979	-1.089999999999999
2.839999999999983	-1.947774999999978	-1.084999999999999
2.849999999999983	-1.958599999999978	-1.079999999999999
2.859999999999983	-1.969374999999978	-1.074999999999999
2.869999999999983	-1.980099999999978	-1.069999999999999
2.879999999999983	-1.990774999999977	-1.064999999999999
2.889999999999982	-2.001399999999977	-1.059999999999999
2.899999999999982	-2.011974999999977	-1.054999999999999
2.909999999999982	-2.022499999999977	-1.049999999999999
2.919999999999982	-2.032974999999976	-1.044999999999999
2.929999999999982	-2.043399999999976	-1.04
2.939999999999981	-2.053774999999976	-1.035
2.949999999999981	-2.064099999999976	-1.03
2.959999999999981	-2.074374999999975	-1.025
2.969999999999981	-2.084599999999975	-1.02
2.97999999999998	-2.094774999999975	-1.015
2.98999999999998	-2.104899999999975	-1.01
2.99999999999998	-2.114974999999975	-1.005
3.00999999999998	-2.124999999999974	-1
3.01999999999998	-2.134974999999974	-0.9950000000000006
3.029999999999979	-2.144899999999974	-0.9900000000000007
3.039999999999979	-2.154774999999974	-0.9850000000000008
3.049999999999979	-2.164599999999973	-0.9800000000000009
3.059999999999979	-2.174374999999973	-0.975000000000001
3.069999999999979	-2.184099999999973	-0.9700000000000011
3.079999999999978	-2.193774999999973	-0.9650000000000012
3.089999999999978	-2.203399999999973	-0.9600000000000013
3.099999999999978	-2.212974999999973	-0.9550000000000014
3.109999999999978	-2.222499999999973	-0.9500000000000015
3.119999999999977	-2.231974999999972	-0.9450000000000016
3.129999999999977	-2.241399999999972	-0.9400000000000017
3.139999999999977	-2.250774999999972	-0.9350000000000018
3.149999999999977	-2.260099999999972	-0.9300000000000019
3.159999999999977	-2.269374999999972	-0.925000000000002
3.169999999999976	-2.278599999999972	-0.9200000000000021
3.179999999999976	-2.287774999999971	-0.9150000000000023
3.189999999999976	-2.296899999999972	-0.9100000000000024
3.199999999999976	-2.305974999999971	-0.9050000000000025
3.209999999999976	-2.314999999999971	-0.9000000000000026
3.219999999999975	-2.323974999999971	-0.8950000000000027
3.229999999999975	-2.332899999999971	-0.8900000000000028
3.239999999999975	-2.34177499999997	-0.8850000000000029
3.249999999999975	-2.35059999999997	-0.880000000000003
3.259999999999974	-2.35937499999997	-0.8750000000000031
3.269999999999974	-2.36809999999997	-0.8700000000000032
3.279999999999974	-2.37677499999997	-0.8650000000000033
3.289999999999974	-2.38539999999997	-0.8600000000000034
3.299999999999974	-2.39397499999997	-0.8550000000000035
3.309999999999973	-2.402499999999969	-0.8500000000000036
3.319999999999973	-2.410974999999969	-0.8450000000000037
3.329999999999973	-2.419399999999969	-0.8400000000000039
3.339999999999973	-2.427774999999969	-0.835000000000004
3.349999999999973	-2.436099999999969	-0.8300000000000041
3.359999999999972	-2.444374999999968	-0.8250000000000042
3.369999999999972	-2.452599999999968	-0.8200000000000043
3.379999999999972	-2.460774999999968	-0.8150000000000044
3.389999999999972	-2.468899999999968	-0.8100000000000045
3.399999999999971	-2.476974999999968	-0.8050000000000046
3.409999999999971	-2.484999999999968	-0.8000000000000047
3.419999999999971	-2.492974999999968	-0.7950000000000048
3.429999999999971	-2.500899999999968	-0.7900000000000049
3.439999999999971	-2.508774999999968	-0.785000000000005
3.44999999999997	-2.516599999999968	-0.7800000000000051
3.45999999999997	-2.524374999999968	-0.7750000000000052
3.46999999999997	-2.532099999999967	-0.7700000000000053
3.47999999999997	-2.539774999999967	-0.7650000000000055
3.48999999999997	-2.547399999999967	-0.7600000000000056
3.499999999999969	-2.554974999999967	-0.7550000000000057
3.509999999999969	-2.562499999999967	-0.7500000000000058
3.519999999999969	-2.569974999999967	-0.7450000000000059
3.529999999999969	-2.577399999999967	-0.740000000000006
3.539999999999969	-2.584774999999967	-0.7350000000000061
3.549999999999968	-2.592099999999967	-0.7300000000000062
3.559999999999968	-2.599374999999966	-0.7250000000000063
3.569999999999968	-2.606599999999966	-0.7200000000000064
3.579999999999968	-2.613774999999966	-0.7150000000000065
3.589999999999967	-2.620899999999966	-0.7100000000000066
3.599999999999967	-2.627974999999966	-0.7050000000000067
3.609999999999967	-2.634999999999966	-0.7000000000000068
3.619999999999967	-2.641974999999966	-0.6950000000000069
3.629999999999967	-2.648899999999966	-0.6900000000000071
3.639999999999966	-2.655774999999966	-0.6850000000000072
3.649999999999966	-2.662599999999966	-0.6800000000000073
3.659999999999966	-2.669374999999965	-0.6750000000000074
3.669999999999966	-2.676099999999965	-0.6700000000000075
3.679999999999966	-2.682774999999965	-0.6650000000000076
3.689999999999965	-2.689399999999965	-0.6600000000000077
3.699999999999965	-2.695974999999965	-0.6550000000000078
3.709999999999965	-2.702499999999965	-0.6500000000000079
3.719999999999965	-2.708974999999965	-0.645000000000008
3.729999999999964	-2.715399999999965	-0.6400000000000081
3.739999999999964	-2.721774999999965	-0.6350000000000082
3.749999999999964	-2.728099999999965	-0.6300000000000083
3.759999999999964	-2.734374999999965	-0.6250000000000084
3.769999999999964	-2.740599999999965	-0.6200000000000085
3.779999999999963	-2.746774999999965	-0.6150000000000087
3.789999999999963	-2.752899999999965	-0.6100000000000088
3.799999999999963	-2.758974999999965	-0.6050000000000089
3.809999999999963	-2.764999999999965	-0.600000000000009
3.819999999999963	-2.770974999999965	-0.5950000000000091
3.829999999999962	-2.776899999999965	-0.5900000000000092
3.839999999999962	-2.782774999999965	-0.5850000000000093
3.849999999999962	-2.788599999999965	-0.5800000000000094
3.859999999999962	-2.794374999999965	-0.5750000000000095
3.869999999999961	-2.800099999999965	-0.5700000000000096
3.879999999999961	-2.805774999999965	-0.5650000000000097
3.889999999999961	-2.811399999999965	-0.5600000000000098
3.899999999999961	-2.816974999999965	-0.5550000000000099
3.909999999999961	-2.822499999999965	-0.55000000000001
3.91999999999996	-2.827974999999965	-0.5450000000000101
3.92999999999996	-2.833399999999965	-0.5400000000000102
3.93999999999996	-2.838774999999965	-0.5350000000000104
3.94999999999996	-2.844099999999965	-0.5300000000000105
3.95999999999996	-2.849374999999965	-0.5250000000000106
3.969999999999959	-2.854599999999964	-0.5200000000000107
3.979999999999959	-2.859774999999964	-0.5150000000000108
3.989999999999959	-2.864899999999964	-0.5100000000000109
3.999999999999959	-2.869974999999965	-0.505000000000011
4.009999999999959	-2.874999999999965	-0.5000000000000109
4.019999999999959	-2.879974999999965	-0.495000000000011
4.029999999999959	-2.884899999999965	-0.4900000000000111
4.039999999999958	-2.889774999999965	-0.4850000000000112
4.049999999999958	-2.894599999999965	-0.4800000000000113
4.059999999999958	-2.899374999999965	-0.4750000000000114
4.069999999999958	-2.904099999999965	-0.4700000000000115
4.079999999999957	-2.908774999999965	-0.4650000000000116
4.089999999999957	-2.913399999999965	-0.4600000000000117
4.099999999999957	-2.917974999999965	-0.4550000000000118
4.109999999999957	-2.922499999999965	-0.4500000000000119
4.119999999999957	-2.926974999999965	-0.4450000000000121
4.129999999999956	-2.931399999999965	-0.4400000000000122
4.139999999999956	-2.935774999999965	-0.4350000000000123
4.149999999999956	-2.940099999999966	-0.4300000000000124
4.159999999999956	-2.944374999999966	-0.4250000000000125
4.169999999999956	-2.948599999999966	-0.4200000000000126
4.179999999999955	-2.952774999999966	-0.4150000000000127
4.189999999999955	-2.956899999999966	-0.4100000000000128
4.199999999999955	-2.960974999999966	-0.4050000000000129
4.209999999999955	-2.964999999999966	-0.400000000000013
4.219999999999954	-2.968974999999966	-0.3950000000000131
4.229999999999954	-2.972899999999966	-0.3900000000000132
4.239999999999954	-2.976774999999966	-0.3850000000000133
4.249999999999954	-2.980599999999966	-0.3800000000000134
4.259999999999954	-2.984374999999966	-0.3750000000000135
4.269999999999953	-2.988099999999966	-0.3700000000000137
4.279999999999953	-2.991774999999966	-0.3650000000000138
4.289999999999953	-2.995399999999966	-0.3600000000000139
4.299999999999953	-2.998974999999966	-0.355000000000014
4.309999999999953	-3.002499999999966	-0.3500000000000141
4.319999999999952	-3.005974999999966	-0.3450000000000142
4.329999999999952	-3.009399999999966	-0.3400000000000143
4.339999999999952	-3.012774999999966	-0.3350000000000144
4.349999999999952	-3.016099999999966	-0.3300000000000145
4.359999999999951	-3.019374999999966	-0.3250000000000146
4.369999999999951	-3.022599999999966	-0.3200000000000147
4.379999999999951	-3.025774999999967	-0.3150000000000148
4.389999999999951	-3.028899999999967	-0.3100000000000149
4.399999999999951	-3.031974999999967	-0.305000000000015
4.40999999999995	-3.034999999999967	-0.3000000000000151
4.41999999999995	-3.037974999999967	-0.2950000000000153
4.42999999999995	-3.040899999999967	-0.2900000000000154
4.43999999999995	-3.043774999999967	-0.2850000000000155
4.44999999999995	-3.046599999999967	-0.2800000000000156
4.459999999999949	-3.049374999999968	-0.2750000000000157
